<svg xmlns="http://www.w3.org/2000/svg" version="1.1" xmlns:xlink="http://www.w3.org/1999/xlink" xmlns:svgjs="http://svgjs.dev/svgjs" width="2000" height="232" viewBox="0 0 2000 232"><g transform="matrix(1,0,0,1,-1.2121212121212466,0.525429782213024)"><svg viewBox="0 0 396 46" data-background-color="#ffffff" preserveAspectRatio="xMidYMid meet" height="232" width="2000" xmlns="http://www.w3.org/2000/svg" xmlns:xlink="http://www.w3.org/1999/xlink"><g id="tight-bounds" transform="matrix(1,0,0,1,0.2400000000000091,-0.1041800430249964)"><svg viewBox="0 0 395.52 46.20836008604998" height="46.20836008604998" width="395.52"><g><svg viewBox="0 0 395.52 46.20836008604998" height="46.20836008604998" width="395.52"><g><svg viewBox="0 0 395.52 46.20836008604998" height="46.20836008604998" width="395.52"><g id="textblocktransform"><svg viewBox="0 0 395.52 46.20836008604998" height="46.20836008604998" width="395.52" id="textblock"><g><svg viewBox="0 0 395.52 46.20836008604998" height="46.20836008604998" width="395.52"><g transform="matrix(1,0,0,1,0,0)"><svg width="395.52" viewBox="3.1 -35 302.13 35.3" height="46.20836008604998" data-palette-color="#4a4c59"><path d="M28.7-18.05Q31.4-17.3 32.85-15.5 34.3-13.7 34.3-10.85L34.3-10.85Q34.3-5.6 30.33-2.8 26.35 0 19.35 0L19.35 0 3.1 0 10.1-35 25.05-35Q30.15-35 32.98-33.1 35.8-31.2 35.8-27.55L35.8-27.55Q35.8-24 33.85-21.53 31.9-19.05 28.7-18.05L28.7-18.05ZM24.35-31.95L13.15-31.95 10.6-19.25 21.75-19.25Q26.4-19.25 29.2-21.23 32-23.2 32-26.9L32-26.9Q32-29.45 30.03-30.7 28.05-31.95 24.35-31.95L24.35-31.95ZM19.65-3.05Q24.95-3.05 27.8-5.05 30.65-7.05 30.65-10.8L30.65-10.8Q30.65-13.7 28.63-14.95 26.6-16.2 22.5-16.2L22.5-16.2 10-16.2 7.4-3.05 19.65-3.05ZM40.8 0L47.8-35 51.45-35 45.1-3.2 64.7-3.2 64.05 0 40.8 0ZM70.25 0L77.25-35 80.9-35 73.9 0 70.25 0ZM92.14 0L98.49-31.8 86.14-31.8 86.79-35 115.14-35 114.44-31.8 102.14-31.8 95.79 0 92.14 0ZM145.69-35L145.19-32.45 116.34-3.2 139.89-3.2 139.24 0 110.54 0 111.04-2.55 139.84-31.8 117.29-31.8 117.94-35 145.69-35ZM172.19-18.05Q174.89-17.3 176.34-15.5 177.79-13.7 177.79-10.85L177.79-10.85Q177.79-5.6 173.81-2.8 169.84 0 162.84 0L162.84 0 146.59 0 153.59-35 168.54-35Q173.64-35 176.46-33.1 179.29-31.2 179.29-27.55L179.29-27.55Q179.29-24 177.34-21.53 175.39-19.05 172.19-18.05L172.19-18.05ZM167.84-31.95L156.64-31.95 154.09-19.25 165.24-19.25Q169.89-19.25 172.69-21.23 175.49-23.2 175.49-26.9L175.49-26.9Q175.49-29.45 173.51-30.7 171.54-31.95 167.84-31.95L167.84-31.95ZM163.14-3.05Q168.44-3.05 171.29-5.05 174.14-7.05 174.14-10.8L174.14-10.8Q174.14-13.7 172.11-14.95 170.09-16.2 165.99-16.2L165.99-16.2 153.49-16.2 150.89-3.05 163.14-3.05ZM199.24 0.3Q193.24 0.3 189.91-2.7 186.59-5.7 186.59-11.05L186.59-11.05Q186.59-13.1 186.99-14.95L186.99-14.95 190.99-35 194.63-35 190.63-15.05Q190.24-12.95 190.24-11.5L190.24-11.5Q190.24-7.3 192.63-5.15 195.03-3 199.53-3L199.53-3Q204.69-3 207.76-5.93 210.84-8.85 212.09-15.05L212.09-15.05 216.09-35 219.69-35 215.69-14.8Q212.63 0.3 199.24 0.3L199.24 0.3ZM223.88 0L230.88-35 234.53-35 227.53 0 223.88 0ZM238.98 0L245.98-35 249.63-35 243.28-3.2 262.88-3.2 262.23 0 238.98 0ZM268.43 0L275.43-35 288.73-35Q293.93-35 297.65-33.25 301.38-31.5 303.3-28.28 305.23-25.05 305.23-20.75L305.23-20.75Q305.23-14.65 302.53-9.95 299.83-5.25 294.9-2.63 289.98 0 283.48 0L283.48 0 268.43 0ZM272.73-3.2L283.58-3.2Q289.03-3.2 293.1-5.43 297.18-7.65 299.35-11.6 301.53-15.55 301.53-20.6L301.53-20.6Q301.53-25.8 298.18-28.8 294.83-31.8 288.33-31.8L288.33-31.8 278.43-31.8 272.73-3.2Z" opacity="1" transform="matrix(1,0,0,1,0,0)" fill="#4a4c59" class="wordmark-text-0" data-fill-palette-color="primary" id="text-0"></path></svg></g></svg></g></svg></g></svg></g></svg></g><defs></defs></svg><rect width="395.52" height="46.20836008604998" fill="none" stroke="none" visibility="hidden"></rect></g></svg></g></svg>